<svg width="32" height="32" viewBox="0 0 32 32" fill="none" xmlns="http://www.w3.org/2000/svg">
<path fill-rule="evenodd" clip-rule="evenodd" d="M11.9997 2.96166V9.33366H5.62767C5.75431 9.08752 5.9185 8.86261 6.11434 8.66699L11.333 3.44833C11.5285 3.25201 11.7535 3.0887 11.9997 2.96166ZM14.6663 2.66699V9.33366C14.6663 10.0409 14.3854 10.7192 13.8853 11.2193C13.3852 11.7194 12.7069 12.0003 11.9997 12.0003H5.33301V26.667C5.33301 27.3742 5.61396 28.0525 6.11406 28.5526C6.61415 29.0527 7.29243 29.3337 7.99967 29.3337H23.9997C24.7069 29.3337 25.3852 29.0527 25.8853 28.5526C26.3854 28.0525 26.6663 27.3742 26.6663 26.667V5.33366C26.6663 4.62641 26.3854 3.94814 25.8853 3.44804C25.3852 2.94794 24.7069 2.66699 23.9997 2.66699H14.6663ZM14.2757 15.0577C14.5256 15.3077 14.6661 15.6468 14.6661 16.0003C14.6661 16.3539 14.5256 16.693 14.2757 16.943L12.5517 18.667L14.2757 20.391C14.5186 20.6425 14.6529 20.9793 14.6499 21.3289C14.6469 21.6785 14.5066 22.0129 14.2594 22.2601C14.0122 22.5073 13.6778 22.6475 13.3282 22.6506C12.9786 22.6536 12.6418 22.5192 12.3903 22.2763L9.72367 19.6097C9.47371 19.3596 9.33329 19.0205 9.33329 18.667C9.33329 18.3134 9.47371 17.9744 9.72367 17.7243L12.3903 15.0577C12.6404 14.8077 12.9795 14.6673 13.333 14.6673C13.6866 14.6673 14.0256 14.8077 14.2757 15.0577ZM17.7237 16.943C17.4808 16.6915 17.3464 16.3547 17.3494 16.0051C17.3525 15.6555 17.4927 15.3211 17.7399 15.0739C17.9871 14.8267 18.3215 14.6865 18.6711 14.6834C19.0207 14.6804 19.3575 14.8148 19.609 15.0577L22.2757 17.7243C22.5256 17.9744 22.6661 18.3134 22.6661 18.667C22.6661 19.0205 22.5256 19.3596 22.2757 19.6097L19.609 22.2763C19.3575 22.5192 19.0207 22.6536 18.6711 22.6506C18.3215 22.6475 17.9871 22.5073 17.7399 22.2601C17.4927 22.0129 17.3525 21.6785 17.3494 21.3289C17.3464 20.9793 17.4808 20.6425 17.7237 20.391L19.4477 18.667L17.7237 16.943Z" fill="white"/>
</svg>
