<svg width="40" height="40" viewBox="0 0 40 40" fill="none" xmlns="http://www.w3.org/2000/svg">
<path d="M19.9997 3C10.8163 3 3.33301 10.4833 3.33301 19.6667C3.33301 28.85 10.8163 36.3333 19.9997 36.3333C29.183 36.3333 36.6663 28.85 36.6663 19.6667C36.6663 10.4833 29.183 3 19.9997 3ZM5.01634 19.6667C5.01634 17.5 5.48301 15.4333 6.31634 13.5667L13.4663 33.15C8.46634 30.7167 5.01634 25.6 5.01634 19.6667ZM19.9997 34.65C18.533 34.65 17.1163 34.4333 15.7663 34.0333L20.2663 20.9667L24.8663 33.5833C24.8997 33.65 24.933 33.7333 24.9663 33.7833C23.4163 34.35 21.7497 34.65 19.9997 34.65ZM22.0663 12.6333C22.9663 12.5833 23.783 12.4833 23.783 12.4833C24.583 12.3833 24.4997 11.2 23.683 11.25C23.683 11.25 21.2497 11.4333 19.683 11.4333C18.2163 11.4333 15.733 11.25 15.733 11.25C14.933 11.2167 14.833 12.45 15.6497 12.5C15.6497 12.5 16.4163 12.6 17.2163 12.65L19.5497 19.05L16.2663 28.8833L10.8163 12.6333C11.7163 12.6 12.533 12.5 12.533 12.5C13.333 12.4 13.2497 11.2167 12.433 11.2667C12.433 11.2667 9.99967 11.45 8.43301 11.45C8.14967 11.45 7.81634 11.45 7.46634 11.4333C10.1663 7.36667 14.7663 4.68333 19.9997 4.68333C23.8997 4.68333 27.4497 6.16667 30.1163 8.61667C30.0497 8.61667 29.983 8.6 29.9163 8.6C28.4497 8.6 27.3997 9.88333 27.3997 11.2667C27.3997 12.5 28.1163 13.55 28.8663 14.7833C29.433 15.7833 30.0997 17.0667 30.0997 18.9167C30.0997 20.2 29.5997 21.6833 28.9663 23.7667L27.4663 28.7667L22.0663 12.6333ZM33.1497 12.4833C35.0208 15.9096 35.4809 19.9308 34.4318 23.6911C33.3828 27.4514 30.9076 30.6538 27.533 32.6167L32.1163 19.3833C32.9663 17.25 33.2497 15.5333 33.2497 14.0167C33.2497 13.4667 33.2163 12.95 33.1497 12.4833Z" fill="white"/>
</svg>
