<svg width="40" height="40" viewBox="0 0 40 40" fill="none" xmlns="http://www.w3.org/2000/svg">
<path d="M16.4007 20.3331C16.4007 20.4831 16.4007 20.4831 16.284 20.4831H13.334C13.884 18.8164 14.4673 17.0497 15.0007 15.3164C15.0007 15.4497 15.0007 15.5831 15.1173 15.7164C15.234 15.8497 15.2673 16.2664 15.334 16.5331L15.634 17.4664C15.634 17.7831 15.8173 18.0831 15.9173 18.3997L16.234 19.3497L16.4007 20.3331Z" fill="white"/>
<path d="M28.4673 19.2833C28.3748 19.0013 28.2086 18.749 27.9859 18.5527C27.7632 18.3564 27.4921 18.2231 27.2006 18.1667C26.8971 18.1169 26.5875 18.1169 26.284 18.1667C26.0594 18.2104 25.8473 18.3033 25.6628 18.4388C25.4784 18.5742 25.3263 18.7488 25.2173 18.95C25.0485 19.2493 24.9356 19.5769 24.884 19.9167H28.334C28.5007 19.9167 28.5507 19.9167 28.534 19.6833C28.5281 19.5478 28.5057 19.4135 28.4673 19.2833ZM28.4673 19.2833C28.3748 19.0013 28.2086 18.749 27.9859 18.5527C27.7632 18.3564 27.4921 18.2231 27.2006 18.1667C26.8971 18.1169 26.5875 18.1169 26.284 18.1667C26.0594 18.2104 25.8473 18.3033 25.6628 18.4388C25.4784 18.5742 25.3263 18.7488 25.2173 18.95C25.0485 19.2493 24.9356 19.5769 24.884 19.9167H28.334C28.5007 19.9167 28.5507 19.9167 28.534 19.6833C28.5281 19.5478 28.5057 19.4135 28.4673 19.2833ZM28.4673 19.2833C28.3748 19.0013 28.2086 18.749 27.9859 18.5527C27.7632 18.3564 27.4921 18.2231 27.2006 18.1667C26.8971 18.1169 26.5875 18.1169 26.284 18.1667C26.0594 18.2104 25.8473 18.3033 25.6628 18.4388C25.4784 18.5742 25.3263 18.7488 25.2173 18.95C25.0485 19.2493 24.9356 19.5769 24.884 19.9167H28.334C28.5007 19.9167 28.5507 19.9167 28.534 19.6833C28.5281 19.5478 28.5057 19.4135 28.4673 19.2833ZM28.4673 19.2833C28.3748 19.0013 28.2086 18.749 27.9859 18.5527C27.7632 18.3564 27.4921 18.2231 27.2006 18.1667C26.8971 18.1169 26.5875 18.1169 26.284 18.1667C26.0594 18.2104 25.8473 18.3033 25.6628 18.4388C25.4784 18.5742 25.3263 18.7488 25.2173 18.95C25.0485 19.2493 24.9356 19.5769 24.884 19.9167H28.334C28.5007 19.9167 28.5507 19.9167 28.534 19.6833C28.5281 19.5478 28.5057 19.4135 28.4673 19.2833ZM28.334 3H11.6673C9.45718 3 7.33756 3.87797 5.77476 5.44078C4.21196 7.00358 3.33398 9.1232 3.33398 11.3333V28C3.33398 30.2101 4.21196 32.3298 5.77476 33.8926C7.33756 35.4554 9.45718 36.3333 11.6673 36.3333H28.334C30.5441 36.3333 32.6637 35.4554 34.2265 33.8926C35.7893 32.3298 36.6673 30.2101 36.6673 28V11.3333C36.6673 9.1232 35.7893 7.00358 34.2265 5.44078C32.6637 3.87797 30.5441 3 28.334 3ZM21.2173 26.3333H18.5173C18.4711 26.3404 18.4237 26.3333 18.3815 26.3131C18.3393 26.2929 18.3042 26.2604 18.2807 26.22C18.265 26.1934 18.2548 26.1639 18.2507 26.1333C18.1173 25.7167 17.9673 25.3167 17.834 24.9C17.7007 24.4833 17.5007 23.95 17.3507 23.4667C17.3507 23.2 17.134 23.1667 16.9007 23.1667H12.7007C12.5173 23.1667 12.5173 23.1667 12.4507 23.3667C12.384 23.5667 12.284 23.9167 12.184 24.2L11.9173 25.0667L11.5673 26.0833C11.5763 26.1273 11.5763 26.1727 11.5673 26.2167C11.5673 26.4333 11.3007 26.4 11.134 26.4H8.98398C8.73398 26.4 8.65065 26.2833 8.75065 26.05C8.85065 25.8167 8.93398 25.55 9.01732 25.3167L9.36732 24.25L10.0173 22.4167C10.2007 21.9167 10.3673 21.4 10.534 20.8833C10.7007 20.3667 10.8507 20 11.0173 19.55L11.3673 18.5L11.984 16.8333L12.484 15.3667C12.6507 14.9 12.8173 14.4333 12.9673 13.95C12.9907 13.7228 12.9907 13.4938 12.9673 13.2667C12.9673 12.9167 12.9673 12.9167 13.3173 12.9167H16.334C16.6007 12.9167 16.584 12.9167 16.6673 13.1667C16.7507 13.4167 16.9673 13.9833 17.1007 14.3833C17.234 14.7833 17.3506 15.0833 17.4673 15.4167L17.8673 16.5L18.2673 17.6667C18.434 18.1167 18.6007 18.55 18.7507 19L19.184 20.2C19.3173 20.6 19.4673 21 19.6173 21.4167C19.7673 21.8333 19.8173 22.0333 19.934 22.3333C20.0507 22.6333 20.1673 23 20.3007 23.3333C20.434 23.6667 20.5173 23.9667 20.634 24.2833L21.1173 25.6333L21.3173 26.2167C21.384 26.2 21.334 26.3333 21.2173 26.3333ZM31.2173 21.3333C31.2251 21.4833 31.2251 21.6333 31.2173 21.7833C31.2173 21.9333 30.9673 21.9833 30.8173 21.9833H24.934C24.994 22.53 25.234 23.04 25.6173 23.4333C26.3118 23.8599 27.1001 24.1102 27.9134 24.1625C28.7268 24.2148 29.5406 24.0675 30.284 23.7333C30.4173 23.7333 30.484 23.7333 30.484 23.8667V25.75C30.484 26.05 30.3673 26.0833 30.1173 26.1833L29.5173 26.3667C29.3267 26.4229 29.1315 26.4619 28.934 26.4833C28.5173 26.4833 28.1007 26.6 27.684 26.6167C27.2673 26.6333 27.1173 26.6167 26.834 26.6167H26.6673C26.334 26.6167 25.984 26.6167 25.6673 26.5C24.748 26.3164 23.9089 25.8503 23.2673 25.1667C22.8603 24.7458 22.5428 24.2469 22.334 23.7C22.1654 23.3008 22.0532 22.8801 22.0007 22.45C21.9767 21.9614 21.9767 21.4719 22.0007 20.9833C22.0257 20.3817 22.139 19.7867 22.334 19.2167C22.4979 18.7423 22.7279 18.2934 23.0173 17.8833C23.3971 17.3111 23.9123 16.8416 24.5173 16.5167C24.7784 16.3656 25.0507 16.2378 25.334 16.1333C25.6417 16.0601 25.9533 16.0045 26.2673 15.9667C26.5507 15.95 26.834 15.95 27.1173 15.9667C27.5351 15.9733 27.9462 16.0289 28.3507 16.1333C28.7173 16.2367 29.0673 16.3811 29.4006 16.5667C29.9139 16.861 30.3396 17.2867 30.634 17.8C30.8006 18.1 30.934 18.4 31.0673 18.7C31.1384 18.9122 31.194 19.1289 31.234 19.35C31.383 20.0011 31.4 20.6755 31.284 21.3333H31.2173ZM27.134 18.25C26.8305 18.2002 26.5208 18.2002 26.2173 18.25C25.9927 18.2937 25.7806 18.3867 25.5962 18.5221C25.4118 18.6575 25.2596 18.8321 25.1507 19.0333C24.9818 19.3327 24.8689 19.6602 24.8173 20H28.334C28.5007 20 28.5507 20 28.534 19.7667C28.5202 19.6184 28.4865 19.4727 28.434 19.3333C28.3518 19.0462 28.194 18.7864 27.977 18.5812C27.76 18.376 27.4919 18.2328 27.2006 18.1667L27.134 18.25ZM28.4007 19.3667C28.3081 19.0846 28.1419 18.8324 27.9192 18.636C27.6965 18.4397 27.4254 18.3065 27.134 18.25C26.8305 18.2002 26.5208 18.2002 26.2173 18.25C25.9927 18.2937 25.7806 18.3867 25.5962 18.5221C25.4118 18.6575 25.2596 18.8321 25.1507 19.0333C24.9818 19.3327 24.8689 19.6602 24.8173 20H28.334C28.5007 20 28.5507 20 28.534 19.7667C28.534 19.6022 28.5118 19.4411 28.4673 19.2833L28.4007 19.3667ZM28.4007 19.3667C28.3081 19.0846 28.1419 18.8324 27.9192 18.636C27.6965 18.4397 27.4254 18.3065 27.134 18.25C26.8305 18.2002 26.5208 18.2002 26.2173 18.25C25.9927 18.2937 25.7806 18.3867 25.5962 18.5221C25.4118 18.6575 25.2596 18.8321 25.1507 19.0333C24.9818 19.3327 24.8689 19.6602 24.8173 20H28.334C28.5007 20 28.5507 20 28.534 19.7667C28.534 19.6022 28.5118 19.4411 28.4673 19.2833L28.4007 19.3667ZM28.4007 19.3667C28.3081 19.0846 28.1419 18.8324 27.9192 18.636C27.6965 18.4397 27.4254 18.3065 27.134 18.25C26.8305 18.2002 26.5208 18.2002 26.2173 18.25C25.9927 18.2937 25.7806 18.3867 25.5962 18.5221C25.4118 18.6575 25.2596 18.8321 25.1507 19.0333C24.9818 19.3327 24.8689 19.6602 24.8173 20H28.334C28.5007 20 28.5507 20 28.534 19.7667C28.534 19.6022 28.5118 19.4411 28.4673 19.2833L28.4007 19.3667ZM28.4007 19.3667C28.3081 19.0846 28.1419 18.8324 27.9192 18.636C27.6965 18.4397 27.4254 18.3065 27.134 18.25C26.8305 18.2002 26.5208 18.2002 26.2173 18.25C25.9927 18.2937 25.7806 18.3867 25.5962 18.5221C25.4118 18.6575 25.2596 18.8321 25.1507 19.0333C24.9818 19.3327 24.8689 19.6602 24.8173 20H28.334C28.5007 20 28.5507 20 28.534 19.7667C28.534 19.6022 28.5118 19.4411 28.4673 19.2833L28.4007 19.3667Z" fill="white"/>
</svg>
