<svg width="40" height="40" viewBox="0 0 40 40" fill="none" xmlns="http://www.w3.org/2000/svg">
<path d="M19.9997 16.8784C21.7163 16.8784 23.1163 18.2784 23.1163 20.0284C23.1163 21.6951 21.7163 23.1117 19.9997 23.1117C18.283 23.1117 16.883 21.6951 16.883 20.0284C16.883 18.2784 18.283 16.8784 19.9997 16.8784ZM12.283 33.3617C13.333 33.9951 15.633 33.0284 18.283 30.5284C17.4163 29.5451 16.5663 28.4784 15.7663 27.3617C14.4234 27.2323 13.0882 27.032 11.7663 26.7617C10.9163 30.3284 11.233 32.7784 12.283 33.3617ZM13.4663 23.7951L12.983 22.9451C12.7997 23.4284 12.6163 23.9117 12.4997 24.3784C12.9497 24.4784 13.4497 24.5617 13.9663 24.6451L13.4663 23.7951ZM24.3663 22.5284L25.7163 20.0284L24.3663 17.5284C23.8663 16.6451 23.333 15.8617 22.8497 15.0784C21.9497 15.0284 20.9997 15.0284 19.9997 15.0284C18.9997 15.0284 18.0497 15.0284 17.1497 15.0784C16.6663 15.8617 16.133 16.6451 15.633 17.5284L14.283 20.0284L15.633 22.5284C16.133 23.4117 16.6663 24.1951 17.1497 24.9784C18.0497 25.0284 18.9997 25.0284 19.9997 25.0284C20.9997 25.0284 21.9497 25.0284 22.8497 24.9784C23.333 24.1951 23.8663 23.4117 24.3663 22.5284ZM19.9997 11.3284C19.683 11.6951 19.3497 12.0784 19.0163 12.5284H20.983C20.6497 12.0784 20.3163 11.6951 19.9997 11.3284ZM19.9997 28.7284C20.3163 28.3617 20.6497 27.9784 20.983 27.5284H19.0163C19.3497 27.9784 19.683 28.3617 19.9997 28.7284ZM27.6997 6.69505C26.6663 6.06172 24.3663 7.02839 21.7163 9.52839C22.583 10.5117 23.433 11.5784 24.233 12.6951C25.5997 12.8284 26.9497 13.0284 28.233 13.2951C29.083 9.72839 28.7663 7.27839 27.6997 6.69505ZM26.533 16.2617L27.0163 17.1117C27.1997 16.6284 27.383 16.1451 27.4997 15.6784C27.0497 15.5784 26.5497 15.4951 26.033 15.4117L26.533 16.2617ZM28.9497 4.51172C31.3997 5.91172 31.6663 9.59505 30.633 13.8951C34.8663 15.1451 37.9163 17.2117 37.9163 20.0284C37.9163 22.8451 34.8663 24.9117 30.633 26.1617C31.6663 30.4617 31.3997 34.1451 28.9497 35.5451C26.5163 36.9451 23.1997 35.3451 19.9997 32.2951C16.7997 35.3451 13.483 36.9451 11.033 35.5451C8.59967 34.1451 8.33301 30.4617 9.36634 26.1617C5.13301 24.9117 2.08301 22.8451 2.08301 20.0284C2.08301 17.2117 5.13301 15.1451 9.36634 13.8951C8.33301 9.59505 8.59967 5.91172 11.033 4.51172C13.483 3.11172 16.7997 4.71172 19.9997 7.76172C23.1997 4.71172 26.5163 3.11172 28.9497 4.51172ZM28.4663 20.0284C29.033 21.2784 29.533 22.5284 29.9497 23.7951C33.4497 22.7451 35.4163 21.2451 35.4163 20.0284C35.4163 18.8117 33.4497 17.3117 29.9497 16.2617C29.533 17.5284 29.033 18.7784 28.4663 20.0284ZM11.533 20.0284C10.9663 18.7784 10.4663 17.5284 10.0497 16.2617C6.54967 17.3117 4.58301 18.8117 4.58301 20.0284C4.58301 21.2451 6.54967 22.7451 10.0497 23.7951C10.4663 22.5284 10.9663 21.2784 11.533 20.0284ZM26.533 23.7951L26.033 24.6451C26.5497 24.5617 27.0497 24.4784 27.4997 24.3784C27.383 23.9117 27.1997 23.4284 27.0163 22.9451L26.533 23.7951ZM21.7163 30.5284C24.3663 33.0284 26.6663 33.9951 27.6997 33.3617C28.7663 32.7784 29.083 30.3284 28.233 26.7617C26.9497 27.0284 25.5997 27.2284 24.233 27.3617C23.433 28.4784 22.583 29.5451 21.7163 30.5284ZM13.4663 16.2617L13.9663 15.4117C13.4497 15.4951 12.9497 15.5784 12.4997 15.6784C12.6163 16.1451 12.7997 16.6284 12.983 17.1117L13.4663 16.2617ZM18.283 9.52839C15.633 7.02839 13.333 6.06172 12.283 6.69505C11.233 7.27839 10.9163 9.72839 11.7663 13.2951C13.0882 13.0248 14.4234 12.8245 15.7663 12.6951C16.5663 11.5784 17.4163 10.5117 18.283 9.52839Z" fill="white"/>
</svg>
