<svg width="40" height="40" viewBox="0 0 40 40" fill="none" xmlns="http://www.w3.org/2000/svg">
<path d="M9.99967 24C9.99967 24.8841 9.64849 25.7319 9.02336 26.357C8.39824 26.9821 7.5504 27.3333 6.66634 27.3333C5.78229 27.3333 4.93444 26.9821 4.30932 26.357C3.6842 25.7319 3.33301 24.8841 3.33301 24C3.33301 23.1159 3.6842 22.2681 4.30932 21.643C4.93444 21.0179 5.78229 20.6667 6.66634 20.6667H9.99967V24ZM11.6663 24C11.6663 23.1159 12.0175 22.2681 12.6427 21.643C13.2678 21.0179 14.1156 20.6667 14.9997 20.6667C15.8837 20.6667 16.7316 21.0179 17.3567 21.643C17.9818 22.2681 18.333 23.1159 18.333 24V32.3333C18.333 33.2174 17.9818 34.0652 17.3567 34.6904C16.7316 35.3155 15.8837 35.6667 14.9997 35.6667C14.1156 35.6667 13.2678 35.3155 12.6427 34.6904C12.0175 34.0652 11.6663 33.2174 11.6663 32.3333V24ZM14.9997 10.6667C14.1156 10.6667 13.2678 10.3155 12.6427 9.69036C12.0175 9.06523 11.6663 8.21739 11.6663 7.33333C11.6663 6.44928 12.0175 5.60143 12.6427 4.97631C13.2678 4.35119 14.1156 4 14.9997 4C15.8837 4 16.7316 4.35119 17.3567 4.97631C17.9818 5.60143 18.333 6.44928 18.333 7.33333V10.6667H14.9997ZM14.9997 12.3333C15.8837 12.3333 16.7316 12.6845 17.3567 13.3096C17.9818 13.9348 18.333 14.7826 18.333 15.6667C18.333 16.5507 17.9818 17.3986 17.3567 18.0237C16.7316 18.6488 15.8837 19 14.9997 19H6.66634C5.78229 19 4.93444 18.6488 4.30932 18.0237C3.6842 17.3986 3.33301 16.5507 3.33301 15.6667C3.33301 14.7826 3.6842 13.9348 4.30932 13.3096C4.93444 12.6845 5.78229 12.3333 6.66634 12.3333H14.9997ZM28.333 15.6667C28.333 14.7826 28.6842 13.9348 29.3093 13.3096C29.9344 12.6845 30.7823 12.3333 31.6663 12.3333C32.5504 12.3333 33.3982 12.6845 34.0234 13.3096C34.6485 13.9348 34.9997 14.7826 34.9997 15.6667C34.9997 16.5507 34.6485 17.3986 34.0234 18.0237C33.3982 18.6488 32.5504 19 31.6663 19H28.333V15.6667ZM26.6663 15.6667C26.6663 16.5507 26.3152 17.3986 25.69 18.0237C25.0649 18.6488 24.2171 19 23.333 19C22.449 19 21.6011 18.6488 20.976 18.0237C20.3509 17.3986 19.9997 16.5507 19.9997 15.6667V7.33333C19.9997 6.44928 20.3509 5.60143 20.976 4.97631C21.6011 4.35119 22.449 4 23.333 4C24.2171 4 25.0649 4.35119 25.69 4.97631C26.3152 5.60143 26.6663 6.44928 26.6663 7.33333V15.6667ZM23.333 29C24.2171 29 25.0649 29.3512 25.69 29.9763C26.3152 30.6014 26.6663 31.4493 26.6663 32.3333C26.6663 33.2174 26.3152 34.0652 25.69 34.6904C25.0649 35.3155 24.2171 35.6667 23.333 35.6667C22.449 35.6667 21.6011 35.3155 20.976 34.6904C20.3509 34.0652 19.9997 33.2174 19.9997 32.3333V29H23.333ZM23.333 27.3333C22.449 27.3333 21.6011 26.9821 20.976 26.357C20.3509 25.7319 19.9997 24.8841 19.9997 24C19.9997 23.1159 20.3509 22.2681 20.976 21.643C21.6011 21.0179 22.449 20.6667 23.333 20.6667H31.6663C32.5504 20.6667 33.3982 21.0179 34.0234 21.643C34.6485 22.2681 34.9997 23.1159 34.9997 24C34.9997 24.8841 34.6485 25.7319 34.0234 26.357C33.3982 26.9821 32.5504 27.3333 31.6663 27.3333H23.333Z" fill="white"/>
</svg>
