<svg width="32" height="32" viewBox="0 0 32 32" fill="none" xmlns="http://www.w3.org/2000/svg">
<path fill-rule="evenodd" clip-rule="evenodd" d="M26.8414 4.21314C26.0913 3.46325 25.074 3.04199 24.0134 3.04199C22.9527 3.04199 21.9355 3.46325 21.1854 4.21314L20.2427 5.15714L26.8427 11.7571L27.784 10.8145C28.1555 10.443 28.4502 10.002 28.6513 9.51669C28.8524 9.03135 28.9558 8.51115 28.9558 7.9858C28.9558 7.46046 28.8524 6.94026 28.6513 6.45491C28.4502 5.96957 28.1555 5.52858 27.784 5.15714L26.8414 4.21314ZM24.956 13.6425L18.356 7.04247L6.23603 19.1638C5.97081 19.4291 5.78554 19.7636 5.70137 20.1291L4.32937 26.0691C4.27825 26.2897 4.28411 26.5196 4.34641 26.7372C4.4087 26.9548 4.52538 27.153 4.68545 27.3131C4.84551 27.4731 5.04369 27.5898 5.26132 27.6521C5.47895 27.7144 5.70885 27.7203 5.92937 27.6691L11.8707 26.2985C12.2358 26.2141 12.5698 26.0288 12.8347 25.7638L24.956 13.6425Z" fill="white"/>
</svg>
