<svg width="32" height="32" viewBox="0 0 32 32" fill="none" xmlns="http://www.w3.org/2000/svg">
<g clip-path="url(#clip0_306_11)">
<path d="M27.2897 11.5921L27.6177 10.8375C28.1944 9.50244 29.2505 8.43203 30.5777 7.83747L31.5897 7.38547C31.7124 7.329 31.8164 7.2385 31.8893 7.12471C31.9623 7.01092 32.001 6.87861 32.001 6.74347C32.001 6.60833 31.9623 6.47602 31.8893 6.36223C31.8164 6.24845 31.7124 6.15795 31.5897 6.10147L30.6337 5.67614C29.2731 5.06465 28.1989 3.95465 27.6323 2.57481L27.295 1.76014C27.2454 1.63394 27.159 1.5256 27.047 1.44924C26.935 1.37288 26.8026 1.33203 26.667 1.33203C26.5314 1.33203 26.399 1.37288 26.287 1.44924C26.175 1.5256 26.0885 1.63394 26.039 1.76014L25.7017 2.57347C25.1357 3.95357 24.0619 5.06405 22.7017 5.67614L21.7443 6.10281C21.6219 6.15945 21.5183 6.24993 21.4457 6.36357C21.373 6.47721 21.3344 6.60927 21.3344 6.74414C21.3344 6.87901 21.373 7.01107 21.4457 7.12471C21.5183 7.23835 21.6219 7.32883 21.7443 7.38547L22.7577 7.83614C24.0846 8.43129 25.1402 9.50217 25.7163 10.8375L26.0443 11.5921C26.2843 12.1441 27.0483 12.1441 27.2897 11.5921ZM26.667 14.6668C27.5603 14.6668 28.4177 14.5201 29.2203 14.2508C29.2959 14.8241 29.3337 15.4073 29.3337 16.0001C29.3349 18.0701 28.8536 20.1119 27.928 21.9635C27.0025 23.8151 25.6581 25.4254 24.0017 26.6668H26.667V29.3335H16.0003C8.63633 29.3335 2.66699 23.3641 2.66699 16.0001C2.66699 8.63614 8.63633 2.66681 16.0003 2.66681C17.2083 2.66681 18.3777 2.82681 19.4897 3.12814C18.888 4.34801 18.6073 5.70115 18.6741 7.05968C18.7409 8.41821 19.153 9.73729 19.8714 10.8923C20.5898 12.0472 21.5909 12.9999 22.7799 13.6604C23.969 14.3209 25.3068 14.6672 26.667 14.6668ZM16.0003 13.3335C16.7076 13.3335 17.3858 13.0525 17.8859 12.5524C18.386 12.0523 18.667 11.3741 18.667 10.6668C18.667 9.95956 18.386 9.28128 17.8859 8.78119C17.3858 8.28109 16.7076 8.00014 16.0003 8.00014C15.2931 8.00014 14.6148 8.28109 14.1147 8.78119C13.6146 9.28128 13.3337 9.95956 13.3337 10.6668C13.3337 11.3741 13.6146 12.0523 14.1147 12.5524C14.6148 13.0525 15.2931 13.3335 16.0003 13.3335ZM10.667 18.6668C11.3742 18.6668 12.0525 18.3859 12.5526 17.8858C13.0527 17.3857 13.3337 16.7074 13.3337 16.0001C13.3337 15.2929 13.0527 14.6146 12.5526 14.1145C12.0525 13.6144 11.3742 13.3335 10.667 13.3335C9.95975 13.3335 9.28147 13.6144 8.78137 14.1145C8.28128 14.6146 8.00033 15.2929 8.00033 16.0001C8.00033 16.7074 8.28128 17.3857 8.78137 17.8858C9.28147 18.3859 9.95975 18.6668 10.667 18.6668ZM21.3337 18.6668C22.0409 18.6668 22.7192 18.3859 23.2193 17.8858C23.7194 17.3857 24.0003 16.7074 24.0003 16.0001C24.0003 15.2929 23.7194 14.6146 23.2193 14.1145C22.7192 13.6144 22.0409 13.3335 21.3337 13.3335C20.6264 13.3335 19.9481 13.6144 19.448 14.1145C18.9479 14.6146 18.667 15.2929 18.667 16.0001C18.667 16.7074 18.9479 17.3857 19.448 17.8858C19.9481 18.3859 20.6264 18.6668 21.3337 18.6668ZM16.0003 24.0001C16.7076 24.0001 17.3858 23.7192 17.8859 23.2191C18.386 22.719 18.667 22.0407 18.667 21.3335C18.667 20.6262 18.386 19.948 17.8859 19.4479C17.3858 18.9478 16.7076 18.6668 16.0003 18.6668C15.2931 18.6668 14.6148 18.9478 14.1147 19.4479C13.6146 19.948 13.3337 20.6262 13.3337 21.3335C13.3337 22.0407 13.6146 22.719 14.1147 23.2191C14.6148 23.7192 15.2931 24.0001 16.0003 24.0001Z" fill="white"/>
</g>
<defs>
<clipPath id="clip0_306_11">
<rect width="32" height="32" fill="white"/>
</clipPath>
</defs>
</svg>
