<svg width="40" height="40" viewBox="0 0 40 40" fill="none" xmlns="http://www.w3.org/2000/svg">
<path d="M10.1733 9.48323C11.1467 10.2732 11.51 10.2132 13.3367 10.0916L30.5567 9.05823C30.9233 9.05823 30.6183 8.69156 30.4967 8.63156L27.6367 6.56489C27.0883 6.13989 26.3583 5.65156 24.96 5.77323L8.285 6.9899C7.67833 7.0499 7.55667 7.35489 7.79833 7.59823L10.1733 9.48323ZM11.2067 13.4966V31.6132C11.2067 32.5882 11.6933 32.9516 12.79 32.8916L31.7133 31.7966C32.8083 31.7366 32.93 31.0666 32.93 30.2749V12.2799C32.93 11.4899 32.6267 11.0632 31.9567 11.1249L12.18 12.2799C11.45 12.3399 11.2067 12.7049 11.2067 13.4966ZM29.89 14.4682C30.01 15.0149 29.89 15.5632 29.34 15.6249L28.4283 15.8066V29.1816C27.6367 29.6082 26.9067 29.8499 26.2983 29.8499C25.325 29.8499 25.0817 29.5466 24.3517 28.6349L18.3867 19.2716V28.3316L20.275 28.7566C20.275 28.7566 20.275 29.8499 18.7517 29.8499L14.5533 30.0932C14.4317 29.8499 14.5533 29.2432 14.98 29.1216L16.075 28.8182V16.8399L14.5533 16.7182C14.4317 16.1699 14.7367 15.3799 15.5883 15.3182L20.0917 15.0149L26.2983 24.5016V16.1099L24.715 15.9282C24.595 15.2582 25.0817 14.7732 25.69 14.7116L29.89 14.4682ZM6.885 5.34823L24.2283 4.07156C26.3567 3.88823 26.905 4.01156 28.245 4.98323L33.78 8.8749C34.6933 9.54323 34.9983 9.7249 34.9983 10.4549V31.7966C34.9983 33.1349 34.5117 33.9249 32.8083 34.0466L12.6667 35.2632C11.3883 35.3232 10.78 35.1416 10.11 34.2899L6.03333 28.9999C5.30333 28.0266 5 27.2982 5 26.4449V7.47489C5 6.38156 5.485 5.46989 6.885 5.34823Z" fill="white"/>
</svg>
