<svg width="40" height="40" viewBox="0 0 40 40" fill="none" xmlns="http://www.w3.org/2000/svg">
<path fill-rule="evenodd" clip-rule="evenodd" d="M14.4451 16.1117C13.8797 16.1117 13.3199 16.223 12.7976 16.4394C12.2753 16.6557 11.8007 16.9728 11.401 17.3726C11.0012 17.7723 10.6841 18.2469 10.4678 18.7692C10.2514 19.2915 10.1401 19.8513 10.1401 20.4167C10.1401 20.982 10.2514 21.5418 10.4678 22.0641C10.6841 22.5864 11.0012 23.061 11.401 23.4608C11.8007 23.8605 12.2753 24.1776 12.7976 24.394C13.3199 24.6103 13.8797 24.7217 14.4451 24.7217H18.7501V16.1117H14.4451ZM18.7501 13.6117H14.4451C13.3031 13.6117 12.2079 13.158 11.4004 12.3505C10.5929 11.543 10.1392 10.4478 10.1392 9.30583C10.1392 8.16386 10.5929 7.06865 11.4004 6.26115C12.2079 5.45365 13.3031 5 14.4451 5H18.7501V13.6117ZM21.2501 5V13.6117H25.5551C26.6824 13.5895 27.756 13.1261 28.5454 12.321C29.3348 11.5159 29.777 10.4334 29.777 9.30583C29.777 8.17831 29.3348 7.09575 28.5454 6.29066C27.756 5.48558 26.6824 5.02218 25.5551 5H21.2501ZM25.5551 16.11C24.425 16.1099 23.3403 16.554 22.5349 17.3467C21.7295 18.1393 21.268 19.2168 21.2501 20.3467V20.485C21.2639 21.3333 21.528 22.1587 22.0094 22.8574C22.4907 23.556 23.1678 24.0969 23.9555 24.412C24.7433 24.7272 25.6066 24.8025 26.437 24.6286C27.2674 24.4546 28.0279 24.0392 28.623 23.4344C29.2181 22.8297 29.6212 22.0626 29.7817 21.2295C29.9423 20.3963 29.853 19.5344 29.5252 18.7518C29.1974 17.9692 28.6457 17.301 27.9393 16.8309C27.233 16.3609 26.4035 16.1101 25.5551 16.11ZM14.4451 27.2217C13.5932 27.2213 12.7604 27.4736 12.0519 27.9467C11.3435 28.4197 10.7912 29.0922 10.465 29.8791C10.1388 30.666 10.0533 31.532 10.2193 32.3675C10.3853 33.203 10.7953 33.9706 11.3975 34.573C11.9998 35.1755 12.7671 35.5858 13.6026 35.7521C14.438 35.9184 15.3041 35.8332 16.0911 35.5073C16.8781 35.1814 17.5508 34.6294 18.0241 33.9212C18.4974 33.2129 18.7501 32.3802 18.7501 31.5283V27.2217H14.4451Z" fill="white"/>
</svg>
