<svg width="32" height="32" viewBox="0 0 32 32" fill="none" xmlns="http://www.w3.org/2000/svg">
<path fill-rule="evenodd" clip-rule="evenodd" d="M18.9902 2.10737L15.429 6.85708C15.5357 6.93784 15.6378 7.02622 15.7353 7.12222L24.8782 16.2651C24.9742 16.3611 25.0625 16.4632 25.1433 16.5714L29.893 13.0102C30.1549 12.8137 30.3716 12.5632 30.5283 12.2757C30.685 11.9882 30.7781 11.6704 30.8013 11.3437C30.8245 11.0171 30.7772 10.6893 30.6627 10.3826C30.5482 10.0758 30.3691 9.7972 30.1376 9.56565L22.4347 1.8628C22.2032 1.63126 21.9246 1.45218 21.6178 1.33767C21.3111 1.22317 20.9833 1.17591 20.6566 1.1991C20.33 1.22229 20.0122 1.31539 19.7247 1.47209C19.4372 1.62879 19.1867 1.84544 18.9902 2.10737ZM3.15703 12.0091L0.379883 29.5999L7.12274 22.8571L6.41874 22.1531C6.1508 21.8851 6.00027 21.5217 6.00027 21.1428C6.00027 20.7639 6.1508 20.4005 6.41874 20.1325C6.68668 19.8646 7.05009 19.714 7.42903 19.714C7.80796 19.714 8.17137 19.8646 8.43931 20.1325L11.8679 23.5611C12.1358 23.829 12.2864 24.1924 12.2864 24.5714C12.2864 24.9503 12.1358 25.3137 11.8679 25.5817C11.5999 25.8496 11.2365 26.0001 10.8576 26.0001C10.4787 26.0001 10.1153 25.8496 9.84731 25.5817L9.14331 24.8777L2.40045 31.6205L19.9913 28.8434C20.4861 28.7653 20.9416 28.5268 21.2877 28.1647C21.6337 27.8025 21.8512 27.3366 21.9067 26.8388L22.8576 18.2857L13.7147 9.1428L5.1616 10.0937C4.66374 10.1491 4.19791 10.3667 3.83573 10.7127C3.47355 11.0588 3.23509 11.5143 3.15703 12.0091Z" fill="white"/>
</svg>
